<svg width="13" height="14" viewBox="0 0 13 14" fill="none" xmlns="http://www.w3.org/2000/svg">
<path d="M4.66667 11.0512C4.46888 11.0512 4.27554 11.1098 4.1111 11.2197C3.94665 11.3296 3.81847 11.4858 3.74279 11.6685C3.6671 11.8512 3.64729 12.0523 3.68588 12.2463C3.72447 12.4403 3.81971 12.6184 3.95956 12.7583C4.09941 12.8981 4.27759 12.9934 4.47157 13.032C4.66556 13.0706 4.86662 13.0508 5.04935 12.9751C5.23208 12.8994 5.38825 12.7712 5.49814 12.6068C5.60802 12.4423 5.66667 12.249 5.66667 12.0512C5.66667 11.786 5.56131 11.5316 5.37377 11.3441C5.18624 11.1565 4.93188 11.0512 4.66667 11.0512ZM11.6667 9.05119H3.66667C3.48985 9.05119 3.32029 8.98095 3.19526 8.85593C3.07024 8.7309 3 8.56133 3 8.38452C3 8.20771 3.07024 8.03814 3.19526 7.91312C3.32029 7.78809 3.48985 7.71785 3.66667 7.71785H9.32733C9.76166 7.7165 10.1839 7.5744 10.5306 7.31286C10.8774 7.05132 11.13 6.68443 11.2507 6.26719L12.3073 2.56719C12.3356 2.46803 12.3404 2.36367 12.3215 2.26231C12.3026 2.16096 12.2605 2.06536 12.1984 1.98305C12.1363 1.90074 12.056 1.83395 11.9637 1.78793C11.8715 1.74192 11.7698 1.71793 11.6667 1.71785H3.49333C3.35521 1.3292 3.10055 0.99261 2.76411 0.753995C2.42766 0.515381 2.0258 0.386357 1.61333 0.384521H0.999999C0.823188 0.384521 0.653618 0.454759 0.528594 0.579784C0.40357 0.704808 0.333332 0.874377 0.333332 1.05119C0.333332 1.228 0.40357 1.39757 0.528594 1.52259C0.653618 1.64762 0.823188 1.71785 0.999999 1.71785H1.614C1.75877 1.71832 1.89949 1.76566 2.0151 1.85279C2.13072 1.93992 2.215 2.06215 2.25533 2.20119L2.35867 2.56452V2.56785L3.45267 6.39585C2.94344 6.4503 2.47451 6.698 2.1425 7.08793C1.81049 7.47785 1.64071 7.98028 1.66815 8.49167C1.69558 9.00306 1.91815 9.48444 2.28997 9.8366C2.66179 10.1888 3.15454 10.3849 3.66667 10.3845H11.6667C11.8435 10.3845 12.013 10.3143 12.1381 10.1893C12.2631 10.0642 12.3333 9.89467 12.3333 9.71786C12.3333 9.54104 12.2631 9.37147 12.1381 9.24645C12.013 9.12143 11.8435 9.05119 11.6667 9.05119ZM10.7827 3.05119L9.96933 5.90052C9.92909 6.03979 9.84476 6.16225 9.729 6.24952C9.61324 6.33679 9.4723 6.38416 9.32733 6.38452H4.836L4.666 5.78986L3.884 3.05119H10.7827ZM10 11.0512C9.80222 11.0512 9.60888 11.1098 9.44443 11.2197C9.27998 11.3296 9.15181 11.4858 9.07612 11.6685C9.00043 11.8512 8.98063 12.0523 9.01921 12.2463C9.0578 12.4403 9.15304 12.6184 9.29289 12.7583C9.43274 12.8981 9.61093 12.9934 9.80491 13.032C9.99889 13.0706 10.2 13.0508 10.3827 12.9751C10.5654 12.8994 10.7216 12.7712 10.8315 12.6068C10.9413 12.4423 11 12.249 11 12.0512C11 11.786 10.8946 11.5316 10.7071 11.3441C10.5196 11.1565 10.2652 11.0512 10 11.0512Z" fill="white"/>
</svg>
