<svg width="13" height="14" viewBox="0 0 13 14" fill="none" xmlns="http://www.w3.org/2000/svg">
<path d="M4.66683 11.0514C4.46905 11.0514 4.27571 11.1101 4.11126 11.22C3.94681 11.3298 3.81864 11.486 3.74295 11.6687C3.66726 11.8515 3.64746 12.0525 3.68604 12.2465C3.72463 12.4405 3.81987 12.6187 3.95972 12.7585C4.09958 12.8984 4.27776 12.9936 4.47174 13.0322C4.66572 13.0708 4.86679 13.051 5.04951 12.9753C5.23224 12.8996 5.38842 12.7715 5.4983 12.607C5.60818 12.4426 5.66683 12.2492 5.66683 12.0514C5.66683 11.7862 5.56147 11.5319 5.37394 11.3443C5.1864 11.1568 4.93205 11.0514 4.66683 11.0514ZM11.6668 9.05143H3.66683C3.49002 9.05143 3.32045 8.98119 3.19543 8.85617C3.0704 8.73115 3.00016 8.56158 3.00016 8.38477C3.00016 8.20795 3.0704 8.03839 3.19543 7.91336C3.32045 7.78834 3.49002 7.7181 3.66683 7.7181H9.3275C9.76183 7.71674 10.184 7.57464 10.5308 7.3131C10.8775 7.05156 11.1302 6.68467 11.2508 6.26743L12.3075 2.56743C12.3357 2.46827 12.3406 2.36391 12.3217 2.26256C12.3028 2.1612 12.2607 2.06561 12.1986 1.9833C12.1365 1.90098 12.0561 1.83419 11.9639 1.78818C11.8716 1.74216 11.7699 1.71817 11.6668 1.7181H3.4935C3.35537 1.32944 3.10072 0.992854 2.76427 0.754239C2.42782 0.515625 2.02596 0.386601 1.6135 0.384766H1.00016C0.823352 0.384766 0.653782 0.455003 0.528758 0.580028C0.403734 0.705052 0.333496 0.874621 0.333496 1.05143C0.333496 1.22824 0.403734 1.39781 0.528758 1.52284C0.653782 1.64786 0.823352 1.7181 1.00016 1.7181H1.61416C1.75893 1.71856 1.89966 1.7659 2.01527 1.85303C2.13088 1.94016 2.21516 2.0624 2.2555 2.20143L2.35883 2.56477V2.5681L3.45283 6.3961C2.94361 6.45054 2.47467 6.69825 2.14266 7.08817C1.81065 7.4781 1.64087 7.98053 1.66831 8.49192C1.69575 9.0033 1.91831 9.48468 2.29014 9.83685C2.66196 10.189 3.15471 10.3851 3.66683 10.3848H11.6668C11.8436 10.3848 12.0132 10.3145 12.1382 10.1895C12.2633 10.0645 12.3335 9.89491 12.3335 9.7181C12.3335 9.54129 12.2633 9.37172 12.1382 9.24669C12.0132 9.12167 11.8436 9.05143 11.6668 9.05143ZM10.7828 3.05143L9.9695 5.90077C9.92925 6.04004 9.84492 6.1625 9.72916 6.24977C9.61341 6.33704 9.47246 6.38441 9.3275 6.38477H4.83616L4.66616 5.7901L3.88416 3.05143H10.7828ZM10.0002 11.0514C9.80238 11.0514 9.60904 11.1101 9.44459 11.22C9.28014 11.3298 9.15197 11.486 9.07628 11.6687C9.0006 11.8515 8.98079 12.0525 9.01938 12.2465C9.05796 12.4405 9.1532 12.6187 9.29306 12.7585C9.43291 12.8984 9.61109 12.9936 9.80507 13.0322C9.99905 13.0708 10.2001 13.051 10.3828 12.9753C10.5656 12.8996 10.7218 12.7715 10.8316 12.607C10.9415 12.4426 11.0002 12.2492 11.0002 12.0514C11.0002 11.7862 10.8948 11.5319 10.7073 11.3443C10.5197 11.1568 10.2654 11.0514 10.0002 11.0514Z" fill="#0A1229"/>
</svg>
