<svg width="12" height="13" viewBox="0 0 12 13" fill="none" xmlns="http://www.w3.org/2000/svg">
<path d="M10.9999 5.38477H3.4099L6.7099 2.09477C6.8982 1.90646 7.00399 1.65107 7.00399 1.38477C7.00399 1.11847 6.8982 0.863072 6.7099 0.674768C6.52159 0.486464 6.2662 0.380676 5.9999 0.380676C5.73359 0.380676 5.4782 0.486464 5.2899 0.674768L0.289896 5.67477C0.198856 5.76987 0.127491 5.88202 0.0798963 6.00477C-0.0201217 6.24823 -0.0201217 6.52131 0.0798963 6.76477C0.127491 6.88752 0.198856 6.99966 0.289896 7.09477L5.2899 12.0948C5.38286 12.1885 5.49346 12.2629 5.61532 12.3137C5.73718 12.3644 5.86788 12.3906 5.9999 12.3906C6.13191 12.3906 6.26261 12.3644 6.38447 12.3137C6.50633 12.2629 6.61693 12.1885 6.7099 12.0948C6.80363 12.0018 6.87802 11.8912 6.92879 11.7693C6.97956 11.6475 7.00569 11.5168 7.00569 11.3848C7.00569 11.2528 6.97956 11.1221 6.92879 11.0002C6.87802 10.8783 6.80363 10.7677 6.7099 10.6748L3.4099 7.38477H10.9999C11.2651 7.38477 11.5195 7.27941 11.707 7.09187C11.8945 6.90434 11.9999 6.64998 11.9999 6.38477C11.9999 6.11955 11.8945 5.8652 11.707 5.67766C11.5195 5.49013 11.2651 5.38477 10.9999 5.38477Z" fill="#0A1229"/>
</svg>
