<?xml version="1.0" standalone="no"?>
<!DOCTYPE svg PUBLIC "-//W3C//DTD SVG 20010904//EN"
 "http://www.w3.org/TR/2001/REC-SVG-20010904/DTD/svg10.dtd">
<svg version="1.0" xmlns="http://www.w3.org/2000/svg"
 width="1440.000000pt" height="458.000000pt" viewBox="0 0 1440.000000 458.000000"
 preserveAspectRatio="xMidYMid meet">

<g transform="translate(0.000000,458.000000) scale(0.100000,-0.100000)"
fill="#000000" stroke="none">
<path d="M14075 4474 c-137 -7 -585 -29 -995 -48 -410 -20 -929 -45 -1155 -56
-225 -11 -644 -31 -930 -45 -825 -39 -1554 -74 -1895 -90 -173 -8 -403 -20
-510 -25 -259 -13 -750 -36 -1145 -55 -176 -8 -412 -19 -525 -25 -419 -20
-834 -40 -1150 -55 -179 -8 -460 -22 -625 -30 -165 -8 -493 -24 -730 -35 -236
-11 -659 -31 -940 -45 -280 -14 -656 -32 -835 -40 -179 -8 -839 -40 -1468 -70
-628 -30 -1149 -55 -1157 -55 -13 0 -15 -231 -15 -1900 l0 -1900 7195 0 7195
0 0 2245 0 2245 -32 -1 c-18 -1 -145 -8 -283 -15z"/>
</g>
</svg>
