<svg width="14" height="14" viewBox="0 0 14 14" fill="none" xmlns="http://www.w3.org/2000/svg">
<path d="M13.4734 12.219L11.0001 9.76565C11.9601 8.56859 12.4251 7.04918 12.2993 5.51985C12.1735 3.99052 11.4665 2.56751 10.3237 1.54342C9.18097 0.519323 7.68926 -0.0280075 6.15534 0.0139661C4.62142 0.0559397 3.16187 0.684027 2.07682 1.76908C0.991766 2.85413 0.363679 4.31368 0.321705 5.8476C0.279732 7.38152 0.827062 8.87323 1.85115 10.016C2.87525 11.1588 4.29826 11.8657 5.82759 11.9915C7.35692 12.1173 8.87633 11.6524 10.0734 10.6923L12.5267 13.1457C12.5887 13.2081 12.6624 13.2577 12.7437 13.2916C12.8249 13.3254 12.9121 13.3429 13.0001 13.3429C13.0881 13.3429 13.1752 13.3254 13.2564 13.2916C13.3377 13.2577 13.4114 13.2081 13.4734 13.1457C13.5936 13.0213 13.6607 12.8552 13.6607 12.6823C13.6607 12.5094 13.5936 12.3433 13.4734 12.219ZM6.33339 10.6923C5.41041 10.6923 4.50816 10.4186 3.74073 9.90584C2.9733 9.39306 2.37516 8.66423 2.02195 7.81151C1.66874 6.95879 1.57633 6.02048 1.75639 5.11523C1.93646 4.20999 2.38091 3.37847 3.03356 2.72582C3.6862 2.07318 4.51773 1.62872 5.42297 1.44865C6.32821 1.26859 7.26653 1.36101 8.11925 1.71421C8.97197 2.06742 9.7008 2.66556 10.2136 3.43299C10.7264 4.20042 11.0001 5.10267 11.0001 6.02565C11.0001 7.26333 10.5084 8.45031 9.63322 9.32548C8.75805 10.2007 7.57107 10.6923 6.33339 10.6923Z" fill="#0A1229"/>
</svg>
