<svg width="13" height="13" viewBox="0 0 13 13" fill="none" xmlns="http://www.w3.org/2000/svg">
<path d="M4.66659 10.6667C4.4688 10.6667 4.27546 10.7253 4.11102 10.8352C3.94657 10.9451 3.81839 11.1013 3.74271 11.284C3.66702 11.4667 3.64721 11.6678 3.6858 11.8618C3.72439 12.0557 3.81963 12.2339 3.95948 12.3738C4.09933 12.5136 4.27751 12.6089 4.47149 12.6475C4.66548 12.686 4.86654 12.6662 5.04927 12.5905C5.232 12.5149 5.38817 12.3867 5.49806 12.2222C5.60794 12.0578 5.66659 11.8644 5.66659 11.6667C5.66659 11.4015 5.56123 11.1471 5.37369 10.9596C5.18616 10.772 4.9318 10.6667 4.66659 10.6667ZM11.6666 8.66667H3.66659C3.48977 8.66667 3.32021 8.59643 3.19518 8.47141C3.07016 8.34638 2.99992 8.17681 2.99992 8C2.99992 7.82319 3.07016 7.65362 3.19518 7.5286C3.32021 7.40357 3.48977 7.33333 3.66659 7.33333H9.32725C9.76158 7.33198 10.1838 7.18988 10.5305 6.92834C10.8773 6.66679 11.1299 6.2999 11.2506 5.88267L12.3073 2.18267C12.3355 2.08351 12.3404 1.97915 12.3215 1.87779C12.3026 1.77644 12.2604 1.68084 12.1983 1.59853C12.1362 1.51622 12.0559 1.44943 11.9636 1.40341C11.8714 1.3574 11.7697 1.33341 11.6666 1.33333H3.49325C3.35513 0.944677 3.10047 0.608088 2.76403 0.369474C2.42758 0.130859 2.02572 0.00183577 1.61325 0H0.999919C0.823108 0 0.653538 0.0702379 0.528514 0.195262C0.40349 0.320286 0.333252 0.489856 0.333252 0.666667C0.333252 0.843478 0.40349 1.01305 0.528514 1.13807C0.653538 1.2631 0.823108 1.33333 0.999919 1.33333H1.61392C1.75869 1.3338 1.89941 1.38114 2.01502 1.46827C2.13064 1.5554 2.21492 1.67763 2.25525 1.81667L2.35859 2.18V2.18333L3.45259 6.01133C2.94336 6.06577 2.47443 6.31348 2.14242 6.70341C1.81041 7.09333 1.64063 7.59576 1.66807 8.10715C1.6955 8.61854 1.91807 9.09992 2.28989 9.45208C2.66171 9.80424 3.15446 10.0004 3.66659 10H11.6666C11.8434 10 12.013 9.92976 12.138 9.80474C12.263 9.67971 12.3333 9.51014 12.3333 9.33333C12.3333 9.15652 12.263 8.98695 12.138 8.86193C12.013 8.7369 11.8434 8.66667 11.6666 8.66667ZM10.7826 2.66667L9.96925 5.516C9.92901 5.65527 9.84468 5.77773 9.72892 5.865C9.61316 5.95227 9.47222 5.99964 9.32725 6H4.83592L4.66592 5.40533L3.88392 2.66667H10.7826ZM9.99992 10.6667C9.80214 10.6667 9.6088 10.7253 9.44435 10.8352C9.2799 10.9451 9.15173 11.1013 9.07604 11.284C9.00035 11.4667 8.98055 11.6678 9.01913 11.8618C9.05772 12.0557 9.15296 12.2339 9.29281 12.3738C9.43266 12.5136 9.61085 12.6089 9.80483 12.6475C9.99881 12.686 10.1999 12.6662 10.3826 12.5905C10.5653 12.5149 10.7215 12.3867 10.8314 12.2222C10.9413 12.0578 10.9999 11.8644 10.9999 11.6667C10.9999 11.4015 10.8946 11.1471 10.707 10.9596C10.5195 10.772 10.2651 10.6667 9.99992 10.6667Z" fill="black"/>
</svg>
