<svg width="24" height="25" viewBox="0 0 24 25" fill="none" xmlns="http://www.w3.org/2000/svg">
<path d="M10.3636 3.38477C8.90722 3.38477 7.48354 3.81663 6.2726 4.62576C5.06167 5.43488 4.11786 6.58491 3.56052 7.93043C3.00319 9.27595 2.85737 10.7565 3.14149 12.1849C3.42562 13.6133 4.12693 14.9254 5.15675 15.9552C6.18657 16.985 7.49863 17.6863 8.92703 17.9705C10.3554 18.2546 11.836 18.1088 13.1815 17.5514C14.527 16.9941 15.6771 16.0503 16.4862 14.8394C17.2953 13.6284 17.7272 12.2047 17.7272 10.7484C17.7271 8.79545 16.9512 6.92256 15.5703 5.54165C14.1894 4.16073 12.3165 3.38489 10.3636 3.38477Z" stroke="#0A1229" stroke-width="2" stroke-miterlimit="10"/>
<path d="M15.8574 16.2422L21.0001 21.3848" stroke="#0A1229" stroke-width="2" stroke-miterlimit="10" stroke-linecap="round"/>
</svg>
