<svg width="32" height="32" viewBox="0 0 32 32" fill="none" xmlns="http://www.w3.org/2000/svg">
<rect width="32" height="32" rx="16" fill="#0A1229"/>
<path fill-rule="evenodd" clip-rule="evenodd" d="M11.6464 11.6464C11.8417 11.4512 12.1583 11.4512 12.3536 11.6464L16 15.2929L19.6464 11.6464C19.8417 11.4512 20.1583 11.4512 20.3536 11.6464C20.5488 11.8417 20.5488 12.1583 20.3536 12.3536L16.7071 16L20.3536 19.6464C20.5488 19.8417 20.5488 20.1583 20.3536 20.3536C20.1583 20.5488 19.8417 20.5488 19.6464 20.3536L16 16.7071L12.3536 20.3536C12.1583 20.5488 11.8417 20.5488 11.6464 20.3536C11.4512 20.1583 11.4512 19.8417 11.6464 19.6464L15.2929 16L11.6464 12.3536C11.4512 12.1583 11.4512 11.8417 11.6464 11.6464Z" fill="white" stroke="white" stroke-width="0.5" stroke-linecap="round" stroke-linejoin="round"/>
</svg>
