<svg width="12" height="8" viewBox="0 0 12 8" fill="none" xmlns="http://www.w3.org/2000/svg">
<path d="M0.666669 8C0.47778 8 0.319336 7.936 0.191336 7.808C0.0633356 7.68 -0.000442138 7.52178 2.30681e-06 7.33334C2.30681e-06 7.14445 0.0640024 6.986 0.192002 6.858C0.320002 6.73 0.478225 6.66622 0.666669 6.66667H11.3333C11.5222 6.66667 11.6807 6.73067 11.8087 6.85867C11.9367 6.98667 12.0004 7.14489 12 7.33334C12 7.52222 11.936 7.68067 11.808 7.80867C11.68 7.93667 11.5218 8.00045 11.3333 8H0.666669ZM0.666669 4.66667C0.47778 4.66667 0.319336 4.60267 0.191336 4.47467C0.0633356 4.34667 -0.000442138 4.18845 2.30681e-06 4C2.30681e-06 3.81111 0.0640024 3.65267 0.192002 3.52467C0.320002 3.39667 0.478225 3.33289 0.666669 3.33334H11.3333C11.5222 3.33334 11.6807 3.39734 11.8087 3.52534C11.9367 3.65334 12.0004 3.81156 12 4C12 4.18889 11.936 4.34734 11.808 4.47534C11.68 4.60334 11.5218 4.66711 11.3333 4.66667H0.666669ZM0.666669 1.33334C0.47778 1.33334 0.319336 1.26934 0.191336 1.14134C0.0633356 1.01334 -0.000442138 0.855113 2.30681e-06 0.666669C2.30681e-06 0.47778 0.0640024 0.319336 0.192002 0.191336C0.320002 0.0633358 0.478225 -0.000442138 0.666669 2.3068e-06H11.3333C11.5222 2.3068e-06 11.6807 0.0640024 11.8087 0.192002C11.9367 0.320002 12.0004 0.478225 12 0.666669C12 0.855558 11.936 1.014 11.808 1.142C11.68 1.27 11.5218 1.33378 11.3333 1.33334H0.666669Z" fill="#0A1229"/>
</svg>
