<svg width="32" height="32" viewBox="0 0 32 32" fill="none" xmlns="http://www.w3.org/2000/svg">
<rect width="32" height="32" rx="16" fill="#F39300"/>
<path d="M10.6667 20C10.4778 20 10.3193 19.936 10.1913 19.808C10.0633 19.68 9.99956 19.5218 10 19.3333C10 19.1444 10.064 18.986 10.192 18.858C10.32 18.73 10.4782 18.6662 10.6667 18.6667H21.3333C21.5222 18.6667 21.6807 18.7307 21.8087 18.8587C21.9367 18.9867 22.0004 19.1449 22 19.3333C22 19.5222 21.936 19.6807 21.808 19.8087C21.68 19.9367 21.5218 20.0004 21.3333 20H10.6667ZM10.6667 16.6667C10.4778 16.6667 10.3193 16.6027 10.1913 16.4747C10.0633 16.3467 9.99956 16.1884 10 16C10 15.8111 10.064 15.6527 10.192 15.5247C10.32 15.3967 10.4782 15.3329 10.6667 15.3333H21.3333C21.5222 15.3333 21.6807 15.3973 21.8087 15.5253C21.9367 15.6533 22.0004 15.8116 22 16C22 16.1889 21.936 16.3473 21.808 16.4753C21.68 16.6033 21.5218 16.6671 21.3333 16.6667H10.6667ZM10.6667 13.3333C10.4778 13.3333 10.3193 13.2693 10.1913 13.1413C10.0633 13.0133 9.99956 12.8551 10 12.6667C10 12.4778 10.064 12.3193 10.192 12.1913C10.32 12.0633 10.4782 11.9996 10.6667 12H21.3333C21.5222 12 21.6807 12.064 21.8087 12.192C21.9367 12.32 22.0004 12.4782 22 12.6667C22 12.8556 21.936 13.014 21.808 13.142C21.68 13.27 21.5218 13.3338 21.3333 13.3333H10.6667Z" fill="#0A1229"/>
</svg>
