<svg width="12" height="13" viewBox="0 0 12 13" fill="none" xmlns="http://www.w3.org/2000/svg">
<path d="M11.92 6.00471C11.8724 5.88196 11.801 5.76981 11.71 5.67471L6.71 0.674707C6.61676 0.581468 6.50607 0.507508 6.38425 0.457047C6.26243 0.406587 6.13186 0.380615 6 0.380615C5.7337 0.380615 5.4783 0.486403 5.29 0.674707C5.19676 0.767945 5.1228 0.878636 5.07234 1.00046C5.02188 1.12228 4.99591 1.25285 4.99591 1.38471C4.99591 1.65101 5.1017 1.9064 5.29 2.09471L8.59 5.38471H1C0.734784 5.38471 0.48043 5.49006 0.292893 5.6776C0.105357 5.86514 0 6.11949 0 6.38471C0 6.64992 0.105357 6.90428 0.292893 7.09181C0.48043 7.27935 0.734784 7.38471 1 7.38471H8.59L5.29 10.6747C5.19627 10.7677 5.12188 10.8783 5.07111 11.0001C5.02034 11.122 4.9942 11.2527 4.9942 11.3847C4.9942 11.5167 5.02034 11.6474 5.07111 11.7693C5.12188 11.8911 5.19627 12.0017 5.29 12.0947C5.38296 12.1884 5.49356 12.2628 5.61542 12.3136C5.73728 12.3644 5.86799 12.3905 6 12.3905C6.13201 12.3905 6.26272 12.3644 6.38458 12.3136C6.50644 12.2628 6.61704 12.1884 6.71 12.0947L11.71 7.09471C11.801 6.9996 11.8724 6.88746 11.92 6.76471C12.02 6.52125 12.02 6.24817 11.92 6.00471Z" fill="white"/>
</svg>
