<svg width="16" height="16" viewBox="0 0 16 16" fill="none" xmlns="http://www.w3.org/2000/svg">
<path d="M12.4444 16.0001H3.55551C2.60585 16.0001 1.71299 15.6302 1.04139 14.9586C0.369817 14.2871 -3.05176e-05 13.3942 -3.05176e-05 12.4445V11.5556C-3.05176e-05 11.0646 0.397918 10.6666 0.888864 10.6666C1.37981 10.6666 1.77776 11.0646 1.77776 11.5556V12.4445C1.77776 12.9193 1.9627 13.3658 2.29842 13.7015C2.63423 14.0373 3.08065 14.2223 3.55551 14.2223H12.4444C12.9192 14.2223 13.3656 14.0373 13.7014 13.7015C14.0372 13.3657 14.2222 12.9193 14.2222 12.4445V11.5556C14.2222 11.0646 14.6201 10.6666 15.111 10.6666C15.602 10.6666 16 11.0646 16 11.5556V12.4445C16 13.3941 15.6301 14.287 14.9585 14.9586C14.2869 15.6302 13.3941 16.0001 12.4444 16.0001ZM7.99995 12.4445C7.87699 12.4445 7.75993 12.4195 7.65343 12.3744C7.55406 12.3324 7.46069 12.2714 7.379 12.1916C7.37897 12.1916 7.37897 12.1916 7.37894 12.1916C7.37835 12.191 7.37776 12.1904 7.37717 12.1898C7.37701 12.1897 7.37682 12.1895 7.37667 12.1893C7.37617 12.1889 7.37574 12.1884 7.37527 12.188C7.37496 12.1877 7.37468 12.1874 7.37437 12.1871C7.37406 12.1868 7.37366 12.1864 7.37338 12.1861C7.37276 12.1855 7.37207 12.1848 7.37145 12.1842L3.81588 8.62858C3.46876 8.28146 3.46876 7.71863 3.81588 7.37148C4.16299 7.02436 4.72585 7.02433 5.07297 7.37148L7.11109 9.4096V0.888955C7.11106 0.398009 7.50901 6.10352e-05 7.99995 6.10352e-05C8.4909 6.10352e-05 8.88888 0.398009 8.88888 0.888955V9.40957L10.927 7.37148C11.2741 7.02436 11.837 7.02436 12.1841 7.37148C12.5312 7.7186 12.5312 8.28146 12.1841 8.62858L8.62849 12.1841C8.62786 12.1847 8.62718 12.1854 8.62656 12.186C8.62622 12.1864 8.62585 12.1868 8.62557 12.187C8.62526 12.1874 8.62498 12.1876 8.62467 12.1879C8.62423 12.1884 8.62374 12.1888 8.6233 12.1893C8.62315 12.1894 8.62293 12.1896 8.62277 12.1898C8.62221 12.1904 8.62162 12.191 8.62103 12.1915C8.621 12.1915 8.621 12.1915 8.62097 12.1916C8.61119 12.2011 8.60128 12.2104 8.59116 12.2194C8.51673 12.2858 8.43383 12.3375 8.34617 12.3745C8.34586 12.3746 8.34561 12.3747 8.3453 12.3748C8.34496 12.375 8.34468 12.3751 8.34434 12.3752C8.23839 12.4199 8.12208 12.4445 7.99995 12.4445Z" fill="white"/>
</svg>
