<svg width="25" height="24" viewBox="0 0 25 24" fill="none" xmlns="http://www.w3.org/2000/svg">
<path d="M2.5 9.25L2.5 3.75C2.5 2.784 3.284 2 4.25 2L20.75 2C21.2141 2 21.6592 2.18437 21.9874 2.51256C22.3156 2.84075 22.5 3.28587 22.5 3.75V9.25C22.5 9.71413 22.3156 10.1592 21.9874 10.4874C21.6592 10.8156 21.2141 11 20.75 11L4.25 11C3.284 11 2.5 10.216 2.5 9.25ZM4.75 8.99162L20.25 8.92336C20.388 8.92336 20.5 8.81136 20.5 8.67336V4.24504C20.5 4.17873 20.4737 4.11514 20.4268 4.06826C20.3799 4.02138 20.3163 3.99504 20.25 3.99504L4.82322 3.99504C4.75692 3.99504 4.69333 4.02138 4.64645 4.06826C4.59956 4.11514 4.57322 4.17873 4.57322 4.24504L4.5 8.74162C4.5 8.80793 4.52634 8.87151 4.57322 8.9184C4.62011 8.96528 4.6837 8.99162 4.75 8.99162Z" fill="#0A1229"/>
<path d="M2.5 20.25L2.5 14.75C2.5 13.784 3.284 13 4.25 13L20.75 13C21.2141 13 21.6592 13.1844 21.9874 13.5126C22.3156 13.8408 22.5 14.2859 22.5 14.75V20.25C22.5 20.7141 22.3156 21.1592 21.9874 21.4874C21.6592 21.8156 21.2141 22 20.75 22H4.25C3.284 22 2.5 21.216 2.5 20.25ZM4.75 19.9916L20.25 19.9234C20.388 19.9234 20.5 19.8114 20.5 19.6734V15.245C20.5 15.1787 20.4737 15.1151 20.4268 15.0683C20.3799 15.0214 20.3163 14.995 20.25 14.995H4.82322C4.75692 14.995 4.69333 15.0214 4.64645 15.0683C4.59956 15.1151 4.57322 15.1787 4.57322 15.245L4.5 19.7416C4.5 19.8079 4.52634 19.8715 4.57322 19.9184C4.62011 19.9653 4.6837 19.9916 4.75 19.9916Z" fill="#0A1229"/>
</svg>
