<svg width="18" height="20" viewBox="0 0 18 20" fill="none" xmlns="http://www.w3.org/2000/svg">
<path d="M6.5 16.3848C6.20333 16.3848 5.91332 16.4727 5.66664 16.6376C5.41997 16.8024 5.22771 17.0367 5.11418 17.3107C5.00065 17.5848 4.97094 17.8864 5.02882 18.1774C5.0867 18.4684 5.22956 18.7356 5.43934 18.9454C5.64912 19.1552 5.91639 19.2981 6.20736 19.3559C6.49834 19.4138 6.79994 19.3841 7.07403 19.2706C7.34811 19.1571 7.58238 18.9648 7.7472 18.7181C7.91203 18.4714 8 18.1814 8 17.8848C8 17.4869 7.84196 17.1054 7.56066 16.8241C7.27936 16.5428 6.89782 16.3848 6.5 16.3848ZM17 13.3848H5C4.73478 13.3848 4.48043 13.2794 4.29289 13.0919C4.10536 12.9043 4 12.65 4 12.3848C4 12.1195 4.10536 11.8652 4.29289 11.6777C4.48043 11.4901 4.73478 11.3848 5 11.3848H13.491C14.1425 11.3827 14.7758 11.1696 15.2959 10.7773C15.8161 10.385 16.195 9.83462 16.376 9.20877L17.961 3.65877C18.0034 3.51003 18.0107 3.35349 17.9823 3.20145C17.954 3.04942 17.8907 2.90603 17.7976 2.78256C17.7045 2.65909 17.584 2.55891 17.4456 2.48989C17.3072 2.42086 17.1547 2.38488 17 2.38477H4.74C4.53281 1.80178 4.15083 1.2969 3.64616 0.938976C3.14149 0.581055 2.5387 0.387519 1.92 0.384766H1C0.734784 0.384766 0.48043 0.490122 0.292893 0.677659C0.105357 0.865195 0 1.11955 0 1.38477C0 1.64998 0.105357 1.90434 0.292893 2.09187C0.48043 2.27941 0.734784 2.38477 1 2.38477H1.921C2.13815 2.38546 2.34924 2.45647 2.52266 2.58716C2.69608 2.71786 2.8225 2.90121 2.883 3.10977L3.038 3.65477V3.65977L4.679 9.40177C3.91517 9.48343 3.21176 9.85499 2.71375 10.4399C2.21574 11.0248 1.96107 11.7784 2.00222 12.5455C2.04338 13.3126 2.37722 14.0346 2.93496 14.5629C3.49269 15.0911 4.23181 15.3853 5 15.3848H17C17.2652 15.3848 17.5196 15.2794 17.7071 15.0919C17.8946 14.9043 18 14.65 18 14.3848C18 14.1195 17.8946 13.8652 17.7071 13.6777C17.5196 13.4901 17.2652 13.3848 17 13.3848ZM15.674 4.38477L14.454 8.65877C14.3936 8.86767 14.2671 9.05136 14.0935 9.18227C13.9199 9.31317 13.7085 9.38422 13.491 9.38477H6.754L6.499 8.49277L5.326 4.38477H15.674ZM14.5 16.3848C14.2033 16.3848 13.9133 16.4727 13.6666 16.6376C13.42 16.8024 13.2277 17.0367 13.1142 17.3107C13.0006 17.5848 12.9709 17.8864 13.0288 18.1774C13.0867 18.4684 13.2296 18.7356 13.4393 18.9454C13.6491 19.1552 13.9164 19.2981 14.2074 19.3559C14.4983 19.4138 14.7999 19.3841 15.074 19.2706C15.3481 19.1571 15.5824 18.9648 15.7472 18.7181C15.912 18.4714 16 18.1814 16 17.8848C16 17.4869 15.842 17.1054 15.5607 16.8241C15.2794 16.5428 14.8978 16.3848 14.5 16.3848Z" fill="#0A1229"/>
</svg>
