<svg width="25" height="24" viewBox="0 0 25 24" fill="none" xmlns="http://www.w3.org/2000/svg">
<path d="M4.25 2H9.75C10.716 2 11.5 2.784 11.5 3.75V20.25C11.5 20.7141 11.3156 21.1592 10.9874 21.4874C10.6592 21.8156 10.2141 22 9.75 22H4.25C3.78587 22 3.34075 21.8156 3.01256 21.4874C2.68437 21.1592 2.5 20.7141 2.5 20.25V3.75C2.5 2.784 3.284 2 4.25 2ZM4.50838 4.25L4.57664 19.75C4.57664 19.888 4.68864 20 4.82664 20H9.25496C9.32127 20 9.38486 19.9737 9.43174 19.9268C9.47862 19.8799 9.50496 19.8163 9.50496 19.75V4.32322C9.50496 4.25692 9.47862 4.19333 9.43174 4.14645C9.38486 4.09956 9.32127 4.07322 9.25496 4.07322L4.75838 4C4.69207 4 4.62849 4.02634 4.5816 4.07322C4.53472 4.12011 4.50838 4.1837 4.50838 4.25Z" fill="#0A1229"/>
<path d="M15.25 2H20.75C21.716 2 22.5 2.784 22.5 3.75V20.25C22.5 20.7141 22.3156 21.1592 21.9874 21.4874C21.6592 21.8156 21.2141 22 20.75 22H15.25C14.7859 22 14.3408 21.8156 14.0126 21.4874C13.6844 21.1592 13.5 20.7141 13.5 20.25V3.75C13.5 2.784 14.284 2 15.25 2ZM15.5084 4.25L15.5766 19.75C15.5766 19.888 15.6886 20 15.8266 20H20.255C20.3213 20 20.3849 19.9737 20.4317 19.9268C20.4786 19.8799 20.505 19.8163 20.505 19.75V4.32322C20.505 4.25692 20.4786 4.19333 20.4317 4.14645C20.3849 4.09956 20.3213 4.07322 20.255 4.07322L15.7584 4C15.6921 4 15.6285 4.02634 15.5816 4.07322C15.5347 4.12011 15.5084 4.1837 15.5084 4.25Z" fill="#0A1229"/>
</svg>
