<svg width="20" height="20" viewBox="0 0 20 20" fill="none" xmlns="http://www.w3.org/2000/svg">
<path d="M17 4.66045e-09C17.7652 -4.26217e-05 18.5015 0.292325 19.0583 0.817284C19.615 1.34224 19.9501 2.06011 19.995 2.824L20 3V17C20 17.7652 19.7077 18.5015 19.1827 19.0583C18.6578 19.615 17.9399 19.9501 17.176 19.995L17 20H3C2.23479 20 1.49849 19.7077 0.941739 19.1827C0.384993 18.6578 0.0498925 17.9399 0.00500012 17.176L4.66045e-09 17V3C-4.26217e-05 2.23479 0.292325 1.49849 0.817284 0.941739C1.34224 0.384993 2.06011 0.0498925 2.824 0.00500012L3 4.66045e-09H17ZM10 9H9L8.883 9.007C8.63995 9.03591 8.41594 9.15296 8.25341 9.33597C8.09088 9.51897 8.00111 9.75524 8.00111 10C8.00111 10.2448 8.09088 10.481 8.25341 10.664C8.41594 10.847 8.63995 10.9641 8.883 10.993L9 11V14L9.007 14.117C9.03332 14.3402 9.13408 14.5481 9.29301 14.707C9.45194 14.8659 9.65978 14.9667 9.883 14.993L10 15H11L11.117 14.993C11.3402 14.9667 11.5481 14.8659 11.707 14.707C11.8659 14.5481 11.9667 14.3402 11.993 14.117L12 14L11.993 13.883C11.9691 13.679 11.8829 13.4873 11.7462 13.3339C11.6095 13.1806 11.4289 13.0731 11.229 13.026L11.117 13.006L11 13V10L10.993 9.883C10.9667 9.65978 10.8659 9.45194 10.707 9.29301C10.5481 9.13408 10.3402 9.03332 10.117 9.007L10 9ZM10.01 6L9.883 6.007C9.63995 6.03591 9.41594 6.15296 9.25341 6.33597C9.09088 6.51897 9.00111 6.75524 9.00111 7C9.00111 7.24476 9.09088 7.48103 9.25341 7.66403C9.41594 7.84704 9.63995 7.96409 9.883 7.993L10 8L10.127 7.993C10.37 7.96409 10.5941 7.84704 10.7566 7.66403C10.9191 7.48103 11.0089 7.24476 11.0089 7C11.0089 6.75524 10.9191 6.51897 10.7566 6.33597C10.5941 6.15296 10.37 6.03591 10.127 6.007L10.01 6Z" fill="#65ACBD"/>
</svg>
